<?xml version="1.0" encoding="utf-8"?>
<!-- Generator: Adobe Illustrator 18.0.0, SVG Export Plug-In . SVG Version: 6.00 Build 0)  -->
<!DOCTYPE svg PUBLIC "-//W3C//DTD SVG 1.1//EN" "http://www.w3.org/Graphics/SVG/1.1/DTD/svg11.dtd">
<svg version="1.1" id="Layer_1" xmlns="http://www.w3.org/2000/svg" xmlns:xlink="http://www.w3.org/1999/xlink" x="0px" y="0px"
	 width="211.1px" height="49.2px" viewBox="0 0 211.1 49.2" enable-background="new 0 0 211.1 49.2" xml:space="preserve">
<g>
	<path fill="#56C1A7" d="M108.9,6.6c0.8,2,2.2,3.7,4.2,5.1c2,1.4,4.8,2.6,8.3,3.4c3.6,0.9,8.1,1.3,13.7,1.3h46.4
		c5.5,0,10.2,0.6,14,1.7c3.8,1.1,6.9,2.7,9.2,4.7c2.3,2,4,4.4,5,7.2c1,2.8,1.5,5.8,1.5,9.1v10.1h-4.5V39.2c0-6.3-2.2-10.8-6.5-13.7
		c-4.4-2.9-10.6-4.3-18.7-4.3h-46.6c-10,0-17.1-1.4-21.4-4.1c-4.3-2.7-6.8-6.1-7.6-10.3h-0.5c-0.8,4.1-3.3,7.6-7.6,10.3
		c-4.3,2.7-11.4,4.1-21.4,4.1H29.7c-8.1,0-14.3,1.4-18.7,4.3c-4.4,2.9-6.5,7.4-6.5,13.7v10.1H0l0-10.1c0-6.6,2.2-12,6.5-16.3
		c4.4-4.3,12.1-6.4,23.2-6.4h46.4c5.5,0,10.1-0.4,13.7-1.3c3.6-0.9,6.3-2,8.3-3.4c2-1.4,3.4-3.1,4.2-5.1c0.8-2,1.2-4.2,1.2-6.6
		l4.3,0C107.7,2.4,108.1,4.6,108.9,6.6z"/>
</g>
</svg>
